<?xml version="1.0" standalone="no"?>
<!DOCTYPE svg PUBLIC "-//W3C//DTD SVG 1.1//EN" "http://www.w3.org/Graphics/SVG/1.1/DTD/svg11.dtd" >
<svg xmlns="http://www.w3.org/2000/svg">
<metadata></metadata>
<defs>
<font id="youngregular" horiz-adv-x="1257" >
<font-face units-per-em="2048" ascent="1536" descent="-512" />
<missing-glyph horiz-adv-x="415" />
<glyph horiz-adv-x="2048" />
<glyph horiz-adv-x="2048" />
<glyph unicode="&#xd;" horiz-adv-x="2048" />
<glyph unicode=" "  horiz-adv-x="415" />
<glyph unicode="&#x09;" horiz-adv-x="415" />
<glyph unicode="&#xa0;" horiz-adv-x="415" />
<glyph unicode="!" horiz-adv-x="475" d="M166 94q0 47 32.5 80t80.5 33q47 0 79.5 -33t32.5 -80t-32.5 -79.5t-79.5 -32.5t-80 32.5t-33 79.5zM184 909v525h189v-525l-37 -563h-115z" />
<glyph unicode="&#x22;" horiz-adv-x="860" d="M102 1098l160 444l176 -78l-229 -415zM424 1098l158 444l176 -78l-228 -415z" />
<glyph unicode="#" horiz-adv-x="1267" d="M102 389v170h172l45 283h-145v170h174l64 403l174 -14l-64 -389h391l64 403l174 -14l-64 -389h150v-170h-176l-45 -283h149v-170h-176l-65 -405l-172 16l61 389h-389l-66 -405l-172 16l62 389h-146zM451 559h389l47 283h-391z" />
<glyph unicode="$" horiz-adv-x="1167" d="M70 379h170q4 -78 71.5 -140.5t173.5 -84.5l13 -2v538l-9 2q-74 18 -145.5 45t-127.5 69t-92 105.5t-36 155.5q0 160 108.5 265.5t290.5 125.5l11 2v150h168v-156l8 -2q80 -16 146.5 -52t113.5 -88t74.5 -117t29.5 -138h-170q-2 74 -51 135q-51 57 -139 86l-12 2v-461h8 q131 -41 213 -94t128 -110.5t62.5 -117t16.5 -110.5q0 -74 -32 -142.5t-87 -122.5t-132 -91t-169 -51h-8v-160h-168v160h-9q-90 14 -165.5 50t-132 89t-88 119.5t-33.5 140.5zM262 1067q0 -72 48 -115t175 -82l13 -4v422l-13 -2q-104 -16 -163.5 -74.5t-59.5 -144.5z M666 152l12 2q109 23 175.5 88t66.5 145q0 160 -240 250l-14 6v-491z" />
<glyph unicode="%" horiz-adv-x="1761" d="M61 1075q0 76 29 142.5t79 116.5t116.5 79t142.5 29t142.5 -29t116.5 -79t79 -116.5t29 -142.5t-29 -142.5t-79 -116.5t-116.5 -78.5t-142.5 -28.5t-142.5 28.5t-116.5 78.5t-79 116.5t-29 142.5zM236 1075q0 -82 55 -140t137 -58t137.5 58t55.5 140t-55.5 140.5 t-137.5 58.5t-137 -58.5t-55 -140.5zM467 2l672 1499l155 -69l-671 -1500zM965 322q0 76 28.5 142t78.5 116.5t117.5 79t143.5 28.5t142.5 -28.5t116.5 -79t79 -117t29 -141.5q0 -76 -29 -142.5t-79 -117t-116.5 -79t-142.5 -28.5t-143.5 28.5t-117.5 79t-78.5 117 t-28.5 142.5zM1139 322q0 -82 55 -140.5t139 -58.5q82 0 137.5 58.5t55.5 140.5t-55.5 140t-137.5 58q-84 0 -139 -58.5t-55 -139.5z" />
<glyph unicode="&#x26;" horiz-adv-x="1187" d="M61.5 329.5q-0.5 63.5 27.5 131t89.5 134.5t169.5 128q-8 10 -10 12q-23 27 -51.5 82t-49 123t-22.5 141.5t27 137.5q12 27 33.5 53t55.5 48.5t82 37t113 14.5q125 0 208 -60.5t106 -170.5q12 -63 1.5 -129t-40 -127.5t-75.5 -116.5t-103 -94q98 -109 251 -277 q23 45 45.5 94.5t43.5 106.5l159 -57q-29 -78 -60.5 -146.5t-68.5 -128.5q41 -45 84 -91t90 -97l-125 -115q-37 41 -73.5 82t-75.5 82q-55 -61 -119.5 -95t-129 -50.5t-126 -18.5t-115.5 2q-57 4 -109 24.5t-96 53.5t-75 76t-45 92q-16 55 -16.5 118.5zM231.5 310 q4.5 -36 10.5 -54q12 -47 62 -82t110 -39q133 -10 219 17.5t145 99.5q-90 98 -171 186t-142 156q-104 -53 -154.5 -105.5t-67 -97.5t-12 -81zM386 1070q3 -44 16.5 -88t32 -81t34.5 -55q8 -12 37 -45q45 27 80 64.5t56.5 79.5t29.5 84t2 79q-2 8 -7 24.5t-20.5 32 t-44.5 26.5t-76 11q-39 0 -63.5 -7t-37.5 -16.5t-19.5 -18.5t-8.5 -13q-14 -33 -11 -77z" />
<glyph unicode="'" horiz-adv-x="602" d="M184 1098l160 444l176 -78l-227 -415z" />
<glyph unicode="(" horiz-adv-x="419" d="M102 707v18q0 291 25 500t53.5 344t53 200.5t26.5 71.5l158 -76l-22 -61q-23 -62 -48.5 -188.5t-48.5 -324.5t-23 -474t23 -475t48.5 -326t48.5 -188l22 -62l-158 -74q-2 4 -26.5 70t-53 201t-53.5 344t-25 500z" />
<glyph unicode=")" horiz-adv-x="417" d="M0 -334l78 -37l-78 37q0 2 22.5 62.5t48 188.5t48 325.5t22.5 474.5q0 276 -22.5 474t-48 326t-48 188t-22.5 62l158 74q2 -6 26.5 -71.5t53 -200.5t53 -344t24.5 -500v-18q0 -291 -24.5 -499t-53 -343t-53 -201t-26.5 -72z" />
<glyph unicode="*" horiz-adv-x="778" d="M102 1286l35 109l195 -64v205h114v-205l195 64l35 -109l-195 -63l121 -166l-92 -66l-121 166l-121 -166l-90 66l119 166z" />
<glyph unicode="+" horiz-adv-x="1103" d="M61 406v169h406v404h170v-404h405v-169h-405v-406h-170v406h-406z" />
<glyph unicode="," horiz-adv-x="417" d="M-20 -197l159 445l176 -80l-229 -414z" />
<glyph unicode="-" horiz-adv-x="745" d="M61 408v170h623v-170h-623z" />
<glyph unicode="." horiz-adv-x="430" d="M102 94q0 47 33 80t80 33t80 -33t33 -80t-33 -79.5t-80 -32.5t-80 32.5t-33 79.5z" />
<glyph unicode="/" horiz-adv-x="729" d="M-102 -350l774 2191l162 -57l-777 -2190z" />
<glyph unicode="0" horiz-adv-x="1105" d="M123 604q0 147 29.5 266t85 202t135.5 128t180 45q98 0 178 -45t136.5 -128t86 -201.5t29.5 -266.5q0 -147 -29.5 -266t-86 -202t-136.5 -128t-178 -45q-100 0 -180 45t-135.5 128t-85 202t-29.5 266zM297 604q0 -29 2 -74t10 -97t24.5 -105.5t45.5 -96.5t71 -70.5 t103 -27.5q59 0 102 27.5t72 70.5t45 96.5t24.5 105.5t10.5 97t2 74q0 27 -2 73t-10.5 98t-24.5 105.5t-45 96.5t-72 70.5t-102 27.5q-61 0 -103 -27.5t-71 -70.5t-45.5 -96.5t-24.5 -105.5t-10 -98t-2 -73z" />
<glyph unicode="1" horiz-adv-x="647" d="M41 965l227 241h174v-1206h-174v958l-104 -110z" />
<glyph unicode="2" horiz-adv-x="1017" d="M20 0l146 145q104 104 187 180t149 136q76 68 122 114t72.5 81.5t35.5 69.5t9 77q0 55 -19.5 105t-54 87t-80.5 58.5t-100 21.5q-98 0 -168.5 -65.5t-87.5 -163.5l-168 31q12 78 50.5 145.5t94.5 116.5t128 77.5t151 28.5q88 0 166 -34.5t136.5 -95t92 -140.5t33.5 -172 q0 -74 -18 -129.5t-55 -107.5t-93.5 -106t-132.5 -124q-41 -35 -85 -76t-95 -90h477v-170h-893z" />
<glyph unicode="3" horiz-adv-x="1077" d="M102 195l150 77q29 -59 105.5 -100t174.5 -41q57 0 107.5 15.5t87.5 41t58.5 61.5t21.5 77t-21.5 75.5t-58.5 61t-87 41t-108 14.5h-30h-72l-43 127l37 43l299 348h-530v170h675h78v-170l-307 -358q74 -14 136.5 -46t106.5 -78t68.5 -104.5t24.5 -123.5q0 -78 -34 -144.5 t-93.5 -115t-140 -76t-175.5 -27.5q-74 0 -141 17.5t-122.5 48t-98.5 72.5t-68 94z" />
<glyph unicode="4" horiz-adv-x="1091" d="M102 297v170l541 739h2h131h43v-30v-19v-690h123v-170h-123v-297h-176v297h-455h-86zM313 467h330v451z" />
<glyph unicode="5" horiz-adv-x="1097" d="M102 184l72 37l80 41q10 -16 31.5 -38.5t56.5 -45.5q35 -20 84 -33.5t117 -13.5q100 0 155.5 28.5t82 63.5t32.5 64.5t6 31.5q4 41 -2 92.5t-45 92.5q-68 72 -229 65q-45 -2 -92.5 -9t-94.5 -17q-16 -4 -32.5 -7.5t-32.5 -7.5l-103 84l5 64l12 360l8 170h168h532v-170 h-534l-12 -317q43 8 86 13t86 7q237 7 356 -118q113 -121 98 -314q-4 -45 -26.5 -104.5t-74.5 -112.5t-137 -90t-212 -37q-119 0 -207 33q-55 18 -96 46t-70 56q-25 23 -41 45.5t-27 40.5z" />
<glyph unicode="6" horiz-adv-x="1079" d="M102 426v4q2 39 13.5 111.5t60.5 175t150.5 234.5t281.5 292l113 -127q-92 -82 -159.5 -153.5t-115.5 -135.5q53 13 119 9q90 -6 168 -45t133.5 -102.5t85 -144.5t23.5 -171q-6 -86 -42 -161t-94.5 -130t-136 -87t-163.5 -32h-27q-86 6 -161 42t-132 97q-4 2 -5 4.5 t-3 4.5q-59 66 -86 147.5t-23 167.5zM276 416q-4 -53 11.5 -102.5t50.5 -90.5q74 -84 184 -90q55 -4 104.5 14.5t87.5 52t60.5 81t26.5 102.5t-13.5 105.5t-50 88t-80 61.5t-102.5 28q-6 2 -16 2q-53 0 -99.5 -19.5t-82 -53.5t-57 -80t-24.5 -99z" />
<glyph unicode="7" horiz-adv-x="956" d="M61 1036v170h689h186l-76 -170l-479 -1073l-156 68l449 1005h-613z" />
<glyph unicode="8" horiz-adv-x="1105" d="M143 348q0 88 39 164t105 129q-51 47 -81 111.5t-30 138.5t30 138.5t81 112.5t119.5 75.5t146.5 27.5t146.5 -27.5t119.5 -75.5t81 -112.5t30 -138.5t-30 -138.5t-81 -111.5q66 -53 105 -129t39 -164q0 -80 -33 -149.5t-88.5 -121.5t-130 -83t-158.5 -31t-159 31t-130 83 t-88 121.5t-33 149.5zM317 348q0 -45 18.5 -84t50.5 -68.5t75 -46t92 -16.5t92 16.5t75 46t50 68.5t18 84q0 68 -39.5 122t-105.5 77q-45 16 -90 16t-90 -16q-66 -23 -106 -77t-40 -122zM350 891q0 -55 32 -99t85 -67q37 -18 86 -18q47 0 88 18q53 23 84 67t31 99 q0 39 -15.5 72.5t-43 58.5t-64.5 39t-80 14t-80 -14t-64.5 -39t-43 -58.5t-15.5 -72.5z" />
<glyph unicode="9" horiz-adv-x="1077" d="M102 836q6 86 42 160.5t94.5 130t136.5 87t164 31.5h26q86 -4 161 -41t132 -98q2 -2 4 -3t4 -5q59 -66 86 -147t23 -169v-4q-2 -41 -14.5 -112.5t-61.5 -174t-150.5 -234.5t-281.5 -292l-111 127q92 82 160 153.5t115 137.5q-29 -8 -58.5 -10t-60.5 0q-90 6 -168 45 t-133 101.5t-85 144t-24 172.5zM276 825q-4 -55 13.5 -105t50.5 -88t80 -62.5t102 -26.5q4 0 8.5 -1t8.5 -1q53 0 99 19.5t82 53t56.5 79.5t24.5 100q4 53 -11.5 103t-50.5 91q-72 82 -184 88q-55 4 -104.5 -14.5t-87 -52t-61.5 -81t-26 -102.5z" />
<glyph unicode=":" horiz-adv-x="430" d="M102 94q0 47 33 80t80 33t80 -33t33 -80t-33 -79.5t-80 -32.5t-80 32.5t-33 79.5zM102 793q0 47 33 79.5t80 32.5t80 -32.5t33 -79.5t-33 -81t-80 -34t-80 33.5t-33 81.5z" />
<glyph unicode=";" horiz-adv-x="430" d="M-20 -197l159 445l176 -80l-229 -414zM102 793q0 47 33 79.5t80 32.5t80 -32.5t33 -79.5t-33 -80t-80 -33t-80 32.5t-33 80.5z" />
<glyph unicode="&#x3c;" horiz-adv-x="1103" d="M61 406v169l981 422v-184l-749 -321l749 -324v-184z" />
<glyph unicode="=" horiz-adv-x="1224" d="M123 180v170h979v-170h-979zM123 633v170h979v-170h-979z" />
<glyph unicode="&#x3e;" horiz-adv-x="1101" d="M61 408v167l979 424v-184l-747 -323l747 -322v-186z" />
<glyph unicode="?" horiz-adv-x="1021" d="M20 1020q29 205 151 318.5t308 113.5q94 0 178 -35t147.5 -95t99.5 -141t36 -173q0 -94 -22.5 -160t-56.5 -112t-77 -76.5t-82 -57.5q-35 -25 -64.5 -46t-50 -49t-31.5 -66t-11 -95h-168q0 92 21.5 155.5t55 108.5t75.5 76t81 57q35 23 63.5 45.5t49 51t32 68.5t11.5 100 q0 57 -22.5 107t-60.5 87t-90 58.5t-114 21.5q-78 0 -130 -26.5t-86 -67.5t-51 -92.5t-24 -100.5zM348 96q0 47 33 80t80 33t79.5 -33t32.5 -80t-32.5 -79.5t-79.5 -32.5t-80 32.5t-33 79.5z" />
<glyph unicode="@" horiz-adv-x="1550" d="M82 678q0 147 56.5 278t153.5 228.5t228 154t279 56.5q141 0 263 -57.5t204 -161.5q84 -109 109.5 -245t-9.5 -278q-20 -82 -62 -146.5t-94.5 -109.5t-111 -69.5t-109.5 -24.5h-19t-20 2q-55 12 -88 57l-18 25l-25 -16q-80 -55 -164 -56q-102 0 -168 78q-43 49 -60 120 t-7 151q10 74 43 139t79 114.5t103 77t119 27.5q57 0 108 -29q12 -8 17 -12q4 -4 6 -8l12 -23l17 109l129 -19l-70 -491q-2 -16 -3 -29.5t-1 -23.5q0 -33 17.5 -42.5t25.5 -11.5q29 -4 59 19q12 8 35 25.5t45.5 44t45 64.5t34.5 89q25 104 9.5 203.5t-70.5 181.5l-4 8 l-13 19q-63 80 -154 123t-202 45h-2h-6q-121 0 -226.5 -46.5t-184.5 -126t-125 -186t-46 -227.5t46 -227.5t125 -186.5t184.5 -126t226.5 -46q104 0 184 16.5t143.5 46t114.5 71.5t96 93l101 -81q-127 -145 -278.5 -210t-360.5 -65q-147 0 -278.5 56.5t-228.5 152.5 t-153.5 227t-56.5 279zM551 672q-8 -53 3 -102.5t40 -82.5q16 -23 39.5 -33t48.5 -10q59 0 111.5 56.5t70.5 140.5l6 49q6 106 -47 164q-37 37 -86 37q-33 0 -63.5 -17.5t-56 -47t-43 -69.5t-23.5 -85z" />
<glyph unicode="A" horiz-adv-x="1435" d="M20 0l605 1434h186l604 -1434h-203l-174 412h-641l-172 -412h-205zM477 600h481l-239 569z" />
<glyph unicode="B" horiz-adv-x="1318" d="M205 0v1434h491q84 0 158 -32t129 -87t87 -129t32 -158q0 -78 -25.5 -145.5t-72.5 -120.5q94 -51 153.5 -145.5t59.5 -210.5q0 -84 -32 -158t-87.5 -129.5t-129 -87t-157.5 -31.5h-606zM397 188h414q45 0 83 17.5t66.5 47.5t45 68.5t16.5 84.5q0 45 -16.5 84.5t-45 68.5 t-66.5 46.5t-83 17.5h-414v-435zM397 811h299q92 0 152.5 63.5t60.5 153.5t-60.5 153.5t-152.5 63.5h-299v-434z" />
<glyph unicode="C" horiz-adv-x="1589" d="M102 717q0 156 59.5 293t162 239.5t239.5 161.5t293 59q199 0 364.5 -93t266.5 -249l-158 -104q-76 117 -200.5 187.5t-272.5 70.5q-117 0 -218 -44t-178 -121t-121 -180t-44 -220t44 -220.5t121 -180t178 -120.5t218 -44q147 0 272 70.5t201 187.5l158 -103 q-49 -78 -116.5 -141.5t-149.5 -108.5t-174.5 -69.5t-190.5 -24.5q-156 0 -293 59.5t-239.5 162t-162 239.5t-59.5 293z" />
<glyph unicode="D" horiz-adv-x="1431" d="M205 0v1434h409q147 0 277.5 -56.5t228 -154t153.5 -228.5t56 -278t-56 -278.5t-153.5 -228.5t-227.5 -153.5t-278 -56.5h-409zM397 188h217q109 0 204 42t166 114t112 168t41 205t-41 205t-112 167.5t-166 113.5t-204 42h-217v-1057z" />
<glyph unicode="E" horiz-adv-x="1263" d="M205 0v1434h956v-189h-762v-434h707v-188h-707v-435h762v-188h-956z" />
<glyph unicode="F" d="M205 0v1434h950v-189h-758v-528h615v-189h-615v-528h-192z" />
<glyph unicode="G" horiz-adv-x="1712" d="M102 717q0 156 59.5 293t161 239.5t238.5 161.5t295 59q199 0 364.5 -93t266.5 -249l-158 -104q-76 117 -200.5 187.5t-272.5 70.5q-117 0 -218 -44t-178 -121t-121 -180t-44 -220t44 -220.5t121 -180t178 -120.5t218 -44q88 0 170 26.5t150.5 74.5t122 113.5t83.5 145.5 h-409v188h637q-4 -154 -64.5 -287.5t-163 -234t-237.5 -158t-289 -57.5q-158 0 -295 59.5t-238.5 162t-161 239.5t-59.5 293z" />
<glyph unicode="H" horiz-adv-x="1503" d="M205 0v1434h192v-623h709v623h192v-1434h-192v623h-709v-623h-192z" />
<glyph unicode="I" horiz-adv-x="602" d="M205 0v1434h192v-1434h-192z" />
<glyph unicode="J" horiz-adv-x="950" d="M20 121l160 104q25 -31 63 -52t91 -21q23 0 59.5 4t72.5 30.5t61.5 84t25.5 163.5v1000h192v-1000q0 -223 -108.5 -347t-302.5 -124q-111 0 -187.5 46t-126.5 112z" />
<glyph unicode="K" horiz-adv-x="1286" d="M205 0v1432h192v-834l633 834h236l-541 -715l545 -717h-238l-426 561l-209 -274v-287h-192z" />
<glyph unicode="L" horiz-adv-x="1126" d="M205 0v1434h192v-1246h709v-188h-901z" />
<glyph unicode="M" horiz-adv-x="1726" d="M184 0v1434h193v-2l475 -764l475 764l2 2h193v-1434h-195v1075l-475 -764l-475 764v-1075h-193z" />
<glyph unicode="N" horiz-adv-x="1468" d="M184 0v1434h191l715 -1086v1086h194v-1434h-190l-717 1087v-1087h-193z" />
<glyph unicode="O" horiz-adv-x="1712" d="M102 717q0 156 59.5 293t161 239.5t238.5 161.5t295 59q156 0 293 -59t239.5 -161.5t162 -240t59.5 -292.5q0 -156 -59.5 -293t-162 -239.5t-239.5 -162t-293 -59.5q-158 0 -295 59.5t-238.5 162t-161 239.5t-59.5 293zM295 717q0 -117 44 -220.5t120 -180t178 -120.5 t219 -44t218.5 44t177 120.5t119.5 180t44 220.5t-44 219t-119.5 179t-177 122t-218.5 45t-219 -45t-178 -122t-120 -179t-44 -219z" />
<glyph unicode="P" horiz-adv-x="1372" d="M205 0v1432h565q102 0 193.5 -39t159 -106.5t107.5 -159t40 -193.5q0 -104 -40 -195.5t-107.5 -159t-159 -106.5t-193.5 -39h-373v-434h-192zM397 623h373q63 0 118.5 24.5t97.5 66.5t65.5 98t23.5 122q0 63 -23.5 119.5t-65.5 98.5t-97 66.5t-119 24.5h-373v-620z" />
<glyph unicode="Q" horiz-adv-x="1794" d="M102 717q0 156 59.5 293t162 239.5t239.5 161.5t293 59t293 -59t239.5 -161.5t162 -240t59.5 -292.5q0 -121 -35 -229.5t-100 -200.5l217 -172l-121 -152l-225 180q-100 -86 -224.5 -133t-265.5 -47q-156 0 -293 59.5t-239.5 162t-162 239.5t-59.5 293zM295 717 q0 -117 44 -220.5t121 -180t178 -120.5t218 -44q96 0 180 29.5t156 82.5l-193 154l119 151l207 -163q43 68 67.5 146.5t24.5 164.5q0 117 -44 219t-120.5 179t-178 122t-218.5 45t-218 -45t-178 -122t-121 -179t-44 -219z" />
<glyph unicode="R" horiz-adv-x="1292" d="M205 0v1434h612q92 0 175 -36t144.5 -97.5t97.5 -144.5t36 -175q0 -86 -31 -163t-83 -136t-123.5 -98t-153.5 -52l389 -532h-240l-387 528h-244v-528h-192zM397 717h420q55 0 102.5 20.5t82 56t54 84t19.5 103.5t-19.5 103.5t-54 84t-82 56t-102.5 20.5h-420v-528z" />
<glyph unicode="S" horiz-adv-x="1167" d="M63 340l170 35q29 -94 122.5 -158.5t226.5 -64.5q68 0 128 18t105 51t70.5 75t25.5 91q0 188 -352 277q-84 20 -170 46.5t-154.5 70.5t-112.5 112t-44 172q0 88 34.5 163t98 128t154 83.5t198.5 30.5q96 0 180 -28.5t147.5 -78.5t103.5 -118.5t50 -150.5l-170 -37 q-23 98 -102.5 161.5t-208.5 63.5q-137 0 -214 -61.5t-77 -155.5q0 -37 13.5 -66.5t49.5 -54t100.5 -48t168.5 -50.5q156 -39 253 -94.5t152.5 -118t75 -126t19.5 -120.5q0 -88 -41 -165t-111.5 -134t-166 -91t-203.5 -34q-100 0 -190.5 28.5t-159 80t-113.5 120t-56 148.5z " />
<glyph unicode="T" horiz-adv-x="1085" d="M20 1251v183h1045v-183h-426v-1251h-193v1251h-426z" />
<glyph unicode="U" horiz-adv-x="1603" d="M205 623v811h194v-328v-469v-14q0 -471 414 -471q96 0 165 27.5t115 70.5t72.5 96t40 105.5t17.5 97.5t4 74v483v328h192v-811q0 -152 -43 -274t-121.5 -208t-191.5 -132t-250 -46q-293 0 -450.5 171t-157.5 489z" />
<glyph unicode="V" horiz-adv-x="1435" d="M20 1434h205l494 -1170l491 1170h205l-604 -1434h-186z" />
<glyph unicode="W" horiz-adv-x="1857" d="M20 1434h195l309 -1088l310 1088h190l307 -1088l309 1088h197l-407 -1434h-195l-307 1077l-305 -1077h-195z" />
<glyph unicode="X" horiz-adv-x="1185" d="M20 0l461 717l-461 717h224l350 -543l348 543h223l-460 -717l460 -717h-223l-348 543l-348 -543h-226z" />
<glyph unicode="Y" horiz-adv-x="1185" d="M-31 1434h226l397 -621l397 621h225l-526 -820v-614h-192v614z" />
<glyph unicode="Z" horiz-adv-x="1155" d="M102 0v186v2l719 1055h-719v189h951v-185l-721 -1059h721v-188h-951z" />
<glyph unicode="[" horiz-adv-x="583" d="M205 -377v2187h471v-170h-297v-1847h297v-170h-471z" />
<glyph unicode="\" horiz-adv-x="765" d="M-68 1786l160 55l776 -2189l-159 -58z" />
<glyph unicode="]" horiz-adv-x="583" d="M-92 -207h297v1847h-297v170h471v-2187h-471v170z" />
<glyph unicode="^" horiz-adv-x="772" d="M41 831l260 603h170l260 -603h-184l-160 371l-160 -371h-186z" />
<glyph unicode="_" horiz-adv-x="1572" d="M164 0v170h1245v-170h-1245z" />
<glyph unicode="`" horiz-adv-x="690" d="M102 1397l228 76l258 -297l-107 -60z" />
<glyph unicode="a" d="M82 492q0 109 39 205t105.5 167.5t155.5 113.5t191 42t190.5 -40t154.5 -112v115h176v-983h-176v115q-66 -72 -154 -112t-191 -40q-102 0 -191 41t-155.5 112.5t-105.5 168t-39 207.5zM256 492q0 -74 26.5 -139.5t71.5 -114t105.5 -77t128.5 -28.5t128 28.5t105 77 t71 114t26 139.5t-26 139t-71 113.5t-105.5 77t-127.5 28.5q-68 0 -128.5 -28.5t-105.5 -77t-71.5 -114t-26.5 -138.5z" />
<glyph unicode="b" d="M164 0v1436h176v-568q66 70 154 111t190 41t191.5 -42t156 -112.5t105.5 -167t39 -206.5q0 -109 -39 -205.5t-105.5 -168t-156 -113.5t-191.5 -42t-190 40t-154 112v-115h-176zM340 492q0 -74 25.5 -139.5t70.5 -115t105.5 -77t128.5 -27.5t128 27.5t105 77t71.5 115 t26.5 139.5t-26.5 139t-71.5 113.5t-105.5 77t-127.5 28.5q-68 0 -128.5 -28.5t-105.5 -77t-70.5 -114t-25.5 -138.5z" />
<glyph unicode="c" horiz-adv-x="1116" d="M82 494q0 109 42 205t113.5 166.5t168 112.5t206.5 42q139 0 255 -65.5t188 -176.5l-144 -94q-47 76 -125 121t-174 45q-74 0 -139 -28.5t-112.5 -76t-75 -113t-27.5 -138.5q0 -74 27.5 -139.5t75 -115t113 -78t138.5 -28.5q96 0 173 46t124 120l146 -94 q-72 -111 -187.5 -176.5t-255.5 -65.5q-111 0 -207 42t-167.5 113.5t-113.5 168t-42 207.5z" />
<glyph unicode="d" d="M82 489q0 111 39 207.5t105.5 168t155.5 113.5t191 42t190.5 -41t156.5 -113v570h174v-1436h-174v113q-68 -72 -156 -111t-191 -39q-102 0 -191 41t-155.5 112.5t-105.5 168t-39 204.5zM258 489q0 -74 25.5 -139t70.5 -113.5t105.5 -76t128.5 -27.5t128 27.5t105 76 t72 114t27 138.5q0 74 -27 139.5t-72 115t-105.5 78t-127.5 28.5q-68 0 -128.5 -28.5t-105.5 -78t-70.5 -115t-25.5 -139.5z" />
<glyph unicode="e" horiz-adv-x="1146" d="M82 492q0 66 14 122q18 86 63.5 161t108 129t141 85t164.5 31t165 -31t141.5 -85t107.5 -129t64 -161q14 -57 14 -122v-24.5t-2 -23.5h-807q8 -66 35.5 -123t69.5 -98t96.5 -65.5t115.5 -24.5q94 0 171 45t124 121l144 -92q-70 -111 -184.5 -177.5t-254.5 -66.5 q-96 0 -181 37t-150.5 101.5t-107.5 152.5t-50 190q0 10 -1 22.5t-1 25.5zM272 614h602q-35 104 -115.5 170t-185.5 66q-104 0 -185 -65.5t-116 -170.5z" />
<glyph unicode="f" horiz-adv-x="665" d="M82 831v170h125v82q0 250 137 347q45 31 93 39q33 6 63 6q13 0 25 -1q40 -4 68 -13t34 -11l-64 -158l-13 4t-31.5 6.5t-40 0t-40.5 -14.5q-29 -23 -45 -75t-16 -130v-82h207v-170h-207v-831h-170v831h-125z" />
<glyph unicode="g" d="M82 492q0 111 39 207t105.5 167.5t155.5 112.5t191 41t190.5 -40t156.5 -112v115h174v-932q0 -127 -36 -231.5t-101.5 -178t-155.5 -114.5t-201 -41q-117 0 -201 46t-138 102.5t-80.5 105.5t-28.5 53l155 70q2 -4 19.5 -36t53.5 -71t91 -69.5t129 -30.5q88 0 149.5 35 t99.5 91t54.5 127t16.5 142v64q-68 -72 -156 -112t-191 -40q-102 0 -191 41t-155.5 112.5t-105.5 168t-39 207.5zM258 492q0 -74 25.5 -139.5t70.5 -115t105.5 -77t128.5 -27.5t128 27.5t105 77t72 115t27 139.5t-27 139t-72 114.5t-105.5 77t-127.5 27.5 q-68 0 -128.5 -27.5t-105.5 -77t-70.5 -115t-25.5 -138.5z" />
<glyph unicode="h" horiz-adv-x="1220" d="M184 0v1438h176v-543q0 2 19.5 21.5t57.5 43t94.5 43t132.5 19.5q113 0 186.5 -34t119.5 -84t68.5 -108.5t30.5 -105.5q4 -23 6 -40t2 -32v-28v-590h-174v582q0 33 -7 80t-31.5 90t-73 73.5t-129.5 30.5q-98 0 -158 -29.5t-90.5 -71.5t-41 -85t-12.5 -68v-602h-176z" />
<glyph unicode="i" horiz-adv-x="501" d="M137 1264q0 47 34 79.5t81 32.5t80 -32.5t33 -79.5t-33 -81t-80 -34t-81 34t-34 81zM164 0v983h174v-983h-174z" />
<glyph unicode="j" horiz-adv-x="497" d="M-86 -469l63 158l13 -4q14 -4 32.5 -5.5t40 1t39.5 14.5q61 43 62 205v1083h170v-1083q0 -254 -137 -346q-47 -31 -95 -40q-34 -7 -65 -7q-11 0 -22 1q-40 3 -67.5 12t-33.5 11zM135 1276q0 47 34 81t81 34t79.5 -34t32.5 -81t-32.5 -80t-79.5 -33t-81 33t-34 80z" />
<glyph unicode="k" horiz-adv-x="1105" d="M184 0v141v254v1043h174v-860l463 481l125 -121l-342 -358l481 -580h-227l-377 453l-123 -129v-324h-174z" />
<glyph unicode="l" horiz-adv-x="501" d="M184 0v1438h174v-1438h-174z" />
<glyph unicode="m" horiz-adv-x="1615" d="M164 0v981h168h8v-78q25 39 70 70q20 14 41.5 25.5t44.5 15.5q18 6 39 6q17 1 33 1q41 0 81 -7q47 -10 100.5 -37t94.5 -86q4 -4 6 -10.5t6 -10.5q20 31 49 58.5t61.5 47t67.5 32t68 12.5q18 1 36 1q81 0 148 -30q35 -16 69 -41.5t59.5 -66.5t42 -98.5t16.5 -135.5v-649 h-175v653q0 72 -20.5 112t-50 58.5t-64.5 22.5t-61 4q-82 0 -139.5 -57.5t-57.5 -139.5v-4v-649h-174v653q0 72 -20.5 112t-50 58.5t-64.5 22.5t-61 4q-82 0 -138.5 -57.5t-56.5 -139.5v-653h-176z" />
<glyph unicode="n" horiz-adv-x="1200" d="M164 0v983h174v-88q2 0 21.5 20.5t57.5 43t94 42t130 19.5q113 0 187.5 -34t120.5 -84t69 -108.5t31 -105.5q4 -23 6 -40t2 -32v-28v-588h-174v580q0 33 -7.5 80t-32 90t-73.5 73.5t-131 30.5q-98 0 -156.5 -29.5t-90.5 -71.5t-42 -84t-12 -67v-602h-174z" />
<glyph unicode="o" horiz-adv-x="1222" d="M82 492q0 109 42 205t113.5 167.5t168 113.5t206.5 42q109 0 205 -42t168 -113.5t114 -168t42 -204.5q0 -111 -42 -207.5t-114 -168t-168 -112.5t-205 -41q-111 0 -207 41t-167.5 112.5t-113.5 168t-42 207.5zM258 492q0 -74 27.5 -139.5t75 -114t113 -76t138.5 -27.5 q74 0 138.5 27.5t112.5 76t76 114t28 139.5t-28 139t-76 114.5t-112.5 77t-138.5 27.5t-139 -27.5t-112.5 -77t-75 -115t-27.5 -138.5z" />
<glyph unicode="p" d="M164 -492v1475h174v-115q68 72 156 112t190 40q100 0 190.5 -41t157 -112.5t105.5 -168t39 -206.5q0 -111 -39 -207.5t-105.5 -168t-157 -112.5t-190.5 -41q-102 0 -190 40t-156 112v-607h-174zM338 492q0 -74 26.5 -139.5t71.5 -115t105.5 -77t128.5 -27.5t128 27.5 t105 77t70.5 115t25.5 139.5t-25.5 139t-70.5 114.5t-105.5 77t-127.5 27.5q-68 0 -128.5 -27.5t-105.5 -77t-71.5 -115t-26.5 -138.5z" />
<glyph unicode="q" d="M82 492q0 111 39 207t105.5 167.5t156.5 112.5t190 41q102 0 190.5 -40t156.5 -112v115h174v-1475h-174v607q-68 -72 -156 -112t-191 -40q-100 0 -190 41t-156.5 112.5t-105.5 168t-39 207.5zM258 492q0 -74 25.5 -139.5t70.5 -115t105.5 -77t128.5 -27.5t128 27.5 t105 77t72 115t27 139.5t-27 139t-72 114.5t-105.5 77t-127.5 27.5q-68 0 -128.5 -27.5t-105.5 -77t-70.5 -115t-25.5 -138.5z" />
<glyph unicode="r" horiz-adv-x="778" d="M164 0v983h174v-88l21.5 21.5t56.5 43t93 43t132 19.5q66 0 119 -12l-25 -168q-37 14 -96 14q-98 0 -156.5 -29.5t-90.5 -71.5t-42 -84t-12 -67v-604h-174z" />
<glyph unicode="s" horiz-adv-x="1081" d="M109 174l155 55q29 -39 98.5 -67.5t159.5 -28.5q31 0 74 4t83 18.5t68.5 41t28.5 71.5q0 20 -6 41t-31.5 41.5t-80 41t-152.5 40.5q-68 14 -136.5 31.5t-122.5 50.5t-89 83t-35 128q0 131 102.5 213t282.5 82q70 0 134.5 -14.5t117.5 -42t93 -65.5t58 -85l-155 -55 q-25 41 -87.5 66.5t-142.5 25.5q-104 0 -162.5 -35t-58.5 -90q0 -18 5 -33.5t27.5 -30t71 -30t132.5 -31.5q55 -12 126.5 -30.5t136 -54.5t109.5 -95.5t45 -151.5q0 -143 -115.5 -224t-320.5 -81q-74 0 -139.5 15.5t-118.5 44t-94 66.5t-61 85z" />
<glyph unicode="t" horiz-adv-x="663" d="M82 813v170h125v455h170v-455h205v-170h-205v-459q0 -162 61 -204q18 -12 40 -14.5t40.5 -1.5t31.5 5l13 4l62 -157q-6 -2 -33 -10.5t-67 -11.5q-11 -1 -22 -1q-31 0 -66 6q-48 8 -93 39q-137 92 -137 346v459h-125z" />
<glyph unicode="u" horiz-adv-x="1200" d="M143 367v28v588h174v-580q0 -35 7.5 -82t32 -90t72.5 -73.5t130 -30.5q98 0 157.5 30.5t90.5 71.5t41 84t12 68v602h176v-983h-176v88l-20 -20q-19 -21 -57 -43.5t-94 -42t-132 -19.5q-113 0 -186.5 34t-119.5 84t-68.5 108.5t-30.5 105.5q-8 39 -9 72z" />
<glyph unicode="v" horiz-adv-x="1058" d="M20 983h187l323 -750l324 750h184l-424 -983h-170z" />
<glyph unicode="w" horiz-adv-x="1331" d="M20 983h177l192 -664l193 664h170l190 -664l193 664h176l-283 -983h-170l-192 664l-191 -664h-172z" />
<glyph unicode="x" horiz-adv-x="987" d="M20 0l367 492l-367 491h213l261 -350l262 350h211l-367 -491l367 -492h-211l-262 348l-261 -348h-213z" />
<glyph unicode="y" horiz-adv-x="1058" d="M20 983h185l323 -750l324 750h186l-657 -1522l-152 76l207 481z" />
<glyph unicode="z" horiz-adv-x="958" d="M82 0v168l2 2l563 643h-565v170h795v-166l-566 -647h566v-170h-795z" />
<glyph unicode="{" horiz-adv-x="602" d="M123 643v148h2q2 2 21.5 16t42 44t41 77t18.5 112v439q4 43 21.5 100t55 108.5t98 87t148.5 35.5v-170q-49 0 -78.5 -23.5t-46 -54t-22.5 -58t-6 -36.5v-428q0 -119 -39 -197.5t-82 -125.5q43 -47 82 -127t39 -197v-428q2 -10 8 -37.5t22.5 -57.5t45 -53.5t77.5 -23.5 v-170q-88 0 -148.5 36t-98 87t-55 108.5t-21.5 100.5v6v432q0 66 -18.5 113t-41 76.5t-42 44t-21.5 16.5h-2z" />
<glyph unicode="|" horiz-adv-x="577" d="M205 -377v2187h168v-2187h-168z" />
<glyph unicode="}" horiz-adv-x="583" d="M31 -203q49 0 78.5 23.5t46 54.5t22.5 58.5t6 35.5v428q0 117 39 197t82 127q-43 47 -82 126t-39 197v429q0 8 -6 36.5t-22.5 58t-46 53.5t-78.5 24v170q88 0 148.5 -36t98 -87.5t55 -108.5t21.5 -100v-8v-431q0 -66 18.5 -112.5t42 -77.5t43 -45t21.5 -14l2 -2v-146 l-4 -2q-2 0 -21.5 -14.5t-42 -44t-41 -76.5t-18.5 -113v-438q-4 -43 -21.5 -100.5t-55 -108.5t-98 -87t-148.5 -36v170z" />
<glyph unicode="~" horiz-adv-x="1439" d="M41 418q2 4 27.5 49t78 96t129 93t181.5 42q102 0 175 -33.5t132 -70.5q53 -33 103.5 -56.5t115.5 -23.5q66 0 114 25.5t83 58.5q39 37 67 86l152 -78q-2 -4 -29 -45t-79 -89t-129 -88t-179 -40t-175 34t-132 71q-53 33 -103.5 56t-115.5 23q-63 0 -112.5 -28.5 t-83.5 -62.5t-43 -49l-25 -44z" />
<glyph unicode="&#xa2;" horiz-adv-x="1118" d="M82 492q0 96 31.5 182t89 154.5t134.5 115.5t167 66v200h176v-194q119 -14 216 -76.5t161 -159.5l-146 -94q-39 59 -99 101t-132 57v-705q72 14 132 56.5t99 103.5l146 -96q-63 -96 -160.5 -158.5t-216.5 -77.5v-194h-176v200q-90 18 -167 65.5t-134.5 117t-89 154.5 t-31.5 182zM258 492q0 -121 68.5 -214.5t177.5 -127.5v684q-109 -35 -177.5 -128t-68.5 -214z" />
<glyph unicode="&#xa3;" horiz-adv-x="1095" d="M63 35q2 4 20.5 46t56.5 92t94.5 94t134.5 52q4 92 -15.5 144.5t-54.5 99.5h-203v152h92q-31 53 -53 128t-22 183q0 92 36.5 173t99 141.5t146.5 95t180 34.5q186 0 308.5 -113.5t150.5 -318.5l-166 -24q-8 49 -25.5 100t-51 92t-86 67.5t-130.5 26.5q-59 0 -112 -21.5 t-92 -58t-61.5 -87t-22.5 -107.5q0 -61 8 -107.5t23.5 -82t36 -64.5t42.5 -57h303v-152h-204q23 -51 36 -116.5t5 -157.5q35 -16 62.5 -37t49.5 -41q43 -35 75 -53.5t71 -18.5q41 0 73.5 24.5t55 55.5t34.5 57l13 25l157 -63q-2 -4 -22.5 -46t-61 -91.5t-103 -90.5 t-146.5 -41q-86 0 -145.5 37t-106.5 74q-41 35 -73 53.5t-73 18.5t-72.5 -28t-54 -60.5t-34.5 -60.5l-13 -28z" />
<glyph unicode="&#xa5;" horiz-adv-x="1189" d="M41 1417h201l354 -551l354 551h201l-322 -502h252v-151h-348l-49 -76v-149h358v-152h-358v-387h-176v387h-358v152h358v149l-49 76h-348v151h251z" />
<glyph unicode="&#xa7;" horiz-adv-x="1159" d="M102 758q0 86 44 158.5t118 125.5q-51 39 -80.5 94.5t-29.5 137.5q0 78 30.5 143.5t86 112.5t134 73.5t175.5 26.5q92 0 169.5 -28.5t135 -77.5t90.5 -118t33 -149h-166q0 92 -73 149.5t-189 57.5q-121 0 -188.5 -53t-67.5 -137q0 -51 27.5 -85t115.5 -65 q29 -10 65.5 -21t83.5 -24q170 -41 262.5 -105.5t133.5 -133.5q27 -41 36 -83t9 -81q0 -86 -43 -159t-117 -126q49 -39 80 -94t31 -137q0 -78 -31 -143.5t-87 -112.5t-135 -74t-175 -27q-92 0 -170 29t-134.5 78t-89 117.5t-32.5 148.5h165q0 -92 72 -149.5t189 -57.5 q123 0 190.5 53.5t67.5 137.5q0 51 -29 85t-115 64q-31 10 -67.5 21.5t-83.5 23.5q-84 20 -148.5 47t-113 57.5t-81 65.5t-53.5 70q-25 41 -35 83t-10 81zM272 758q0 -45 25 -82l6 -12q68 -94 281 -150q29 -6 59.5 -14t58.5 -17q82 23 133.5 75t51.5 118q0 43 -23 82 q-4 8 -8 12q-63 94 -281 150q-29 6 -59.5 13t-58.5 17q-80 -23 -132.5 -75t-52.5 -117z" />
<glyph unicode="&#xa9;" horiz-adv-x="1570" d="M102 645q0 141 53.5 266t146.5 217.5t217 146.5t265 54t266.5 -54t217.5 -146.5t146 -217.5t54 -266t-54 -265t-146 -217t-217.5 -146.5t-266.5 -53.5t-265 53.5t-217 146.5t-146.5 217t-53.5 265zM229 645q0 -117 43 -218t119 -178t176.5 -121t216.5 -44q117 0 218.5 44 t176 121t118.5 178t44 218t-44 218.5t-118.5 178t-176 120.5t-218.5 44t-217 -44t-176 -120.5t-119 -178t-43 -218.5zM399 645q0 -80 30 -150.5t82 -123t123 -82t150 -29.5q102 0 186.5 48t137.5 128l-107 68q-35 -53 -91 -87t-126 -34q-53 0 -100 20.5t-82 56.5t-55.5 84 t-20.5 101q0 55 20.5 102.5t55.5 83t82 56t100 20.5q70 0 126.5 -32.5t90.5 -88.5l107 70q-53 78 -137 127t-187 49q-80 0 -150.5 -30.5t-122.5 -83t-82 -123t-30 -150.5z" />
<glyph unicode="&#xad;" horiz-adv-x="745" d="M61 408v170h623v-170h-623z" />
<glyph unicode="&#xae;" horiz-adv-x="1570" d="M102 645q0 141 54.5 266t146.5 217.5t217 146.5t266 54t265.5 -54t217.5 -146.5t146 -217.5t53 -266t-53 -265t-146 -217t-217.5 -146.5t-265.5 -53.5t-266 53.5t-217 146.5t-146.5 217t-54.5 265zM229 645q0 -117 44 -218t119 -177t176.5 -120t217.5 -44q117 0 217.5 44 t176 120t118.5 177t43 218t-43 218.5t-118.5 178t-176 120.5t-217.5 44t-218 -44t-176 -120.5t-119 -178t-44 -218.5zM520 260h121v277h115l202 -277h150l-207 283q43 8 80 30.5t62.5 54t41 72.5t15.5 84q0 51 -19.5 96.5t-53.5 79t-79 53t-96 19.5h-332v-772zM641 655v258 h211q53 0 90 -38t37 -91t-37 -91t-90 -38h-211z" />
<glyph unicode="&#xb5;" horiz-adv-x="1218" d="M164 -481v1462h172h2v-578q0 -35 7 -82t31.5 -90t73 -72.5t130.5 -29.5q98 0 156.5 29.5t90 71.5t42 84t12.5 67v600h174v-979h-174v88l-21.5 -21.5t-56.5 -43t-93.5 -42t-131.5 -18.5q-78 0 -137.5 16.5t-104.5 45.5v-508h-172z" />
<glyph unicode="&#xb6;" horiz-adv-x="1294" d="M61 981q0 94 36 176t97.5 143.5t143.5 97.5t176 36h674v-189h-98v-1575h-195v1575h-188v-1575h-193v858q-94 0 -176 36t-143.5 97.5t-97.5 143.5t-36 176z" />
<glyph unicode="&#xc4;" horiz-adv-x="1435" d="M20 0l605 1434h186l604 -1434h-203l-174 412h-641l-172 -412h-205zM453 1649q0 47 32.5 79.5t79.5 32.5t81 -32.5t34 -79.5t-34 -80t-81 -33t-79.5 33t-32.5 80zM477 600h481l-239 569zM756 1649q0 47 32.5 79.5t79.5 32.5t80 -32.5t33 -79.5t-33 -80t-80 -33t-79.5 33 t-32.5 80z" />
<glyph unicode="&#xc6;" horiz-adv-x="2039" d="M20 0l740 1434h1177v-189h-761v-434h706v-188h-706v-433h761v-190h-954v410h-541l-211 -410h-211zM541 598h442v647h-109z" />
<glyph unicode="&#x2dc;" horiz-adv-x="1398" d="M20 418q2 4 29 48t78 95t128 93t181 42q102 0 175 -33.5t134 -70.5q53 -31 102.5 -54.5t117.5 -23.5q63 0 112 26.5t83 58.5t52 59l17 26l149 -80q-2 -4 -28.5 -45t-77.5 -89t-128 -87t-179 -39t-175 34t-133 71q-53 31 -103 54t-118 23q-63 0 -112.5 -28.5t-83 -62.5 t-42.5 -49l-26 -44z" />
<glyph unicode="&#x2000;" horiz-adv-x="920" />
<glyph unicode="&#x2001;" horiz-adv-x="1841" />
<glyph unicode="&#x2002;" horiz-adv-x="920" />
<glyph unicode="&#x2003;" horiz-adv-x="1841" />
<glyph unicode="&#x2004;" horiz-adv-x="613" />
<glyph unicode="&#x2005;" horiz-adv-x="460" />
<glyph unicode="&#x2006;" horiz-adv-x="306" />
<glyph unicode="&#x2007;" horiz-adv-x="306" />
<glyph unicode="&#x2008;" horiz-adv-x="230" />
<glyph unicode="&#x2009;" horiz-adv-x="368" />
<glyph unicode="&#x200a;" horiz-adv-x="102" />
<glyph unicode="&#x2010;" horiz-adv-x="745" d="M61 408v170h623v-170h-623z" />
<glyph unicode="&#x2011;" horiz-adv-x="745" d="M61 408v170h623v-170h-623z" />
<glyph unicode="&#x2012;" horiz-adv-x="745" d="M61 408v170h623v-170h-623z" />
<glyph unicode="&#x2013;" horiz-adv-x="1101" d="M61 408v170h979v-170h-979z" />
<glyph unicode="&#x2014;" horiz-adv-x="2082" d="M61 408v170h1960v-170h-1960z" />
<glyph unicode="&#x2018;" horiz-adv-x="540" d="M102 1128l230 414l106 -47l-159 -446z" />
<glyph unicode="&#x2019;" horiz-adv-x="530" d="M98 1098l158 444l176 -80l-227 -413z" />
<glyph unicode="&#x201c;" horiz-adv-x="862" d="M102 1128l230 414l106 -47l-159 -446zM424 1128l227 414l109 -47l-160 -446z" />
<glyph unicode="&#x201d;" horiz-adv-x="860" d="M102 1096l160 446l176 -80l-229 -413zM422 1096l160 446l176 -80l-228 -413z" />
<glyph unicode="&#x201e;" horiz-adv-x="1024" />
<glyph unicode="&#x2022;" horiz-adv-x="958" d="M102 717q0 78 30 146.5t81 119.5t119.5 81t146.5 30t146.5 -30t120 -81t81 -119.5t29.5 -146.5t-29.5 -146.5t-81 -120t-120 -81t-146.5 -29.5t-146.5 29.5t-119.5 81t-81 120t-30 146.5z" />
<glyph unicode="&#x2026;" horiz-adv-x="2033" d="M102 94q0 47 34 80t81 33t80 -33t33 -80t-33 -79.5t-80 -32.5t-81 32.5t-34 79.5zM905 94q0 47 33 80t80 33t81 -33t34 -80t-34 -79.5t-81 -32.5t-80 32.5t-33 79.5zM1708 94q0 47 33 80t80 33t79.5 -33t32.5 -80t-32.5 -79.5t-79.5 -32.5t-80 32.5t-33 79.5z" />
<glyph unicode="&#x202f;" horiz-adv-x="368" />
<glyph unicode="&#x205f;" horiz-adv-x="460" />
<glyph unicode="&#x2122;" horiz-adv-x="1562" d="M102 1292v142h523v-142h-187v-575h-149v575h-187zM721 717v717h149l2 -2l209 -334l209 334v2h150v-717h-150v448l-209 -336l-209 336v-448h-151z" />
<glyph unicode="&#xe000;" horiz-adv-x="983" d="M0 0v983h983v-983h-983z" />
</font>
</defs>
</svg>
